<svg id="Capa_1" enable-background="new 0 0 406 406" height="512" viewBox="0 0 406 406" width="512" xmlns="http://www.w3.org/2000/svg"><g><path d="m204.54 203.43c9.26 9.08 14.56 21.7 14.56 34.61v64.96h33.87c.002-27.852.011-272.127.01-303h-214.25v303h85.24v-65.61c-.022-41.515 50.885-63.491 80.57-33.96z"/><path d="m325.71 126.18c-8.17-18.99-23.77-33.59-42.73-40.7l-.01 247.52h-93.87v-94.96c.203-9.535-8.284-18.603-17.91-18.21-9.5.18-17.22 8.06-17.22 17.56v105.56c0 34.77 28.28 63.05 63.05 63.05h106.89l43.36-112z"/></g></svg>